# WaveFront *.obj file (generated by Autodesk ATF)

mtllib Цилиндр_25х50.mtl

g Твердое тело1

v -12.500000 0.000000 0.000000
v -12.500000 50.000000 0.000000
v -12.378350 0.000000 -1.739664
v -12.378350 0.000000 1.739664
v -12.378350 50.000000 -1.739664
v -12.378350 50.000000 1.739664
v -12.015771 0.000000 -3.445467
v -12.015771 0.000000 3.445467
v -12.015771 50.000000 -3.445467
v -12.015771 50.000000 3.445467
v -11.419318 0.000000 -5.084208
v -11.419318 0.000000 5.084208
v -11.419318 50.000000 -5.084208
v -11.419318 50.000000 5.084208
v -10.600601 0.000000 -6.623991
v -10.600601 0.000000 6.623991
v -10.600601 50.000000 -6.623991
v -10.600601 50.000000 6.623991
v -9.575555 0.000000 -8.034845
v -9.575555 0.000000 8.034845
v -9.575555 50.000000 -8.034845
v -9.575555 50.000000 8.034845
v -8.364133 0.000000 -9.289311
v -8.364133 0.000000 9.289311
v -8.364133 50.000000 -9.289311
v -8.364133 50.000000 9.289311
v -6.989911 0.000000 -10.362970
v -6.989911 0.000000 10.362970
v -6.989911 50.000000 -10.362970
v -6.989911 50.000000 10.362970
v -5.479639 0.000000 -11.234926
v -5.479639 0.000000 11.234926
v -5.479639 50.000000 -11.234926
v -5.479639 50.000000 11.234926
v -3.862712 0.000000 -11.888206
v -3.862712 0.000000 11.888206
v -3.862712 50.000000 -11.888206
v -3.862712 50.000000 11.888206
v -2.170602 0.000000 -12.310097
v -2.170602 0.000000 12.310097
v -2.170602 50.000000 -12.310097
v -2.170602 50.000000 12.310097
v -0.436244 0.000000 -12.492385
v -0.436244 0.000000 12.492385
v -0.436244 50.000000 -12.492385
v -0.436244 50.000000 12.492385
v 1.306606 0.000000 -12.431524
v 1.306606 0.000000 12.431524
v 1.306606 50.000000 -12.431524
v 1.306606 50.000000 12.431524
v 3.024024 0.000000 -12.128696
v 3.024024 0.000000 12.128696
v 3.024024 50.000000 -12.128696
v 3.024024 50.000000 12.128696
v 4.682582 0.000000 -11.589798
v 4.682582 0.000000 11.589798
v 4.682582 50.000000 -11.589798
v 4.682582 50.000000 11.589798
v 6.250000 0.000000 -10.825318
v 6.250000 0.000000 10.825318
v 6.250000 50.000000 -10.825318
v 6.250000 50.000000 10.825318
v 7.695768 0.000000 -9.850134
v 7.695768 0.000000 9.850134
v 7.695768 50.000000 -9.850134
v 7.695768 50.000000 9.850134
v 8.991747 0.000000 -8.683230
v 8.991747 0.000000 8.683230
v 8.991747 50.000000 -8.683230
v 8.991747 50.000000 8.683230
v 10.112712 0.000000 -7.347316
v 10.112712 0.000000 7.347316
v 10.112712 50.000000 -7.347316
v 10.112712 50.000000 7.347316
v 11.036845 0.000000 -5.868394
v 11.036845 0.000000 5.868394
v 11.036845 50.000000 -5.868394
v 11.036845 50.000000 5.868394
v 11.746157 0.000000 -4.275252
v 11.746157 0.000000 4.275252
v 11.746157 50.000000 -4.275252
v 11.746157 50.000000 4.275252
v 12.226845 0.000000 -2.598896
v 12.226845 0.000000 2.598896
v 12.226845 50.000000 -2.598896
v 12.226845 50.000000 2.598896
v 12.469550 0.000000 -0.871956
v 12.469550 0.000000 0.871956
v 12.469550 50.000000 -0.871956
v 12.469550 50.000000 0.871956
vt -5.000000 0.000000 0.000000
vt -5.000000 -0.174533 0.000000
vt -5.000000 -0.349066 0.000000
vt -5.000000 -0.523599 0.000000
vt -5.000000 -0.698132 0.000000
vt -5.000000 -0.872665 0.000000
vt -5.000000 -1.047198 0.000000
vt -5.000000 -1.221730 0.000000
vt -5.000000 -1.396263 0.000000
vt -5.000000 -1.570796 0.000000
vt -5.000000 -1.745329 0.000000
vt -5.000000 -1.919862 0.000000
vt -5.000000 -2.094395 0.000000
vt -5.000000 -2.268928 0.000000
vt -5.000000 -2.443461 0.000000
vt -5.000000 -2.617994 0.000000
vt -5.000000 -2.792527 0.000000
vt -5.000000 -2.967060 0.000000
vt -5.000000 -3.141593 0.000000
vt -5.000000 -3.316126 0.000000
vt -5.000000 -3.490658 0.000000
vt -5.000000 -3.665192 0.000000
vt -5.000000 -3.839724 0.000000
vt -5.000000 3.839724 0.000000
vt -5.000000 3.665192 0.000000
vt -5.000000 3.490658 0.000000
vt -5.000000 3.316126 0.000000
vt -5.000000 3.141593 0.000000
vt -5.000000 2.967060 0.000000
vt -5.000000 2.792527 0.000000
vt -5.000000 2.617994 0.000000
vt -5.000000 2.443461 0.000000
vt -5.000000 2.268928 0.000000
vt -5.000000 2.094395 0.000000
vt -5.000000 1.919862 0.000000
vt -5.000000 1.745329 0.000000
vt -5.000000 1.570796 0.000000
vt -5.000000 1.396263 0.000000
vt -5.000000 1.221730 0.000000
vt -5.000000 1.047198 0.000000
vt -5.000000 0.872665 0.000000
vt -5.000000 0.698132 0.000000
vt -5.000000 0.523599 0.000000
vt -5.000000 0.349066 0.000000
vt -5.000000 0.174533 0.000000
vt -0.000000 0.000000 0.000000
vt -0.000000 0.174533 0.000000
vt -0.000000 0.349066 0.000000
vt -0.000000 0.523599 0.000000
vt -0.000000 0.698132 0.000000
vt -0.000000 0.872665 0.000000
vt -0.000000 1.047198 0.000000
vt -0.000000 1.221730 0.000000
vt -0.000000 1.396263 0.000000
vt -0.000000 1.570796 0.000000
vt -0.000000 1.745329 0.000000
vt -0.000000 1.919862 0.000000
vt -0.000000 2.094395 0.000000
vt -0.000000 2.268928 0.000000
vt -0.000000 2.443461 0.000000
vt -0.000000 2.617994 0.000000
vt -0.000000 2.792527 0.000000
vt -0.000000 2.967060 0.000000
vt -0.000000 3.141593 0.000000
vt -0.000000 3.316126 0.000000
vt -0.000000 3.490658 0.000000
vt -0.000000 3.665192 0.000000
vt -0.000000 -4.014257 0.000000
vt -0.000000 -3.839724 0.000000
vt -0.000000 -3.665192 0.000000
vt -0.000000 -3.490658 0.000000
vt -0.000000 -3.316126 0.000000
vt -0.000000 -3.141593 0.000000
vt -0.000000 -2.967060 0.000000
vt -0.000000 -2.792527 0.000000
vt -0.000000 -2.617994 0.000000
vt -0.000000 -2.443461 0.000000
vt -0.000000 -2.268928 0.000000
vt -0.000000 -2.094395 0.000000
vt -0.000000 -1.919862 0.000000
vt -0.000000 -1.745329 0.000000
vt -0.000000 -1.570796 0.000000
vt -0.000000 -1.396263 0.000000
vt -0.000000 -1.221730 0.000000
vt -0.000000 -1.047198 0.000000
vt -0.000000 -0.872665 0.000000
vt -0.000000 -0.698132 0.000000
vt -0.000000 -0.523599 0.000000
vt -0.000000 -0.349066 0.000000
vt -0.000000 -0.174533 0.000000
vt -0.000000 3.839725 0.000000
vt -0.000000 3.839725 0.000000
vt -5.000000 -4.014257 0.000000
vt -5.000000 -4.014257 0.000000
vt 0.000000 -1.250000 0.000000
vt 0.173966 -1.237835 0.000000
vt 0.344547 -1.201577 0.000000
vt 0.508421 -1.141932 0.000000
vt 0.662399 -1.060060 0.000000
vt 0.803484 -0.957556 0.000000
vt 0.928931 -0.836413 0.000000
vt 1.036297 -0.698991 0.000000
vt 1.123493 -0.547964 0.000000
vt 1.188821 -0.386271 0.000000
vt 1.231010 -0.217060 0.000000
vt 1.249238 -0.043624 0.000000
vt 1.243152 0.130661 0.000000
vt 1.212870 0.302402 0.000000
vt 1.158980 0.468258 0.000000
vt 1.082532 0.625000 0.000000
vt 0.985013 0.769577 0.000000
vt 0.868323 0.899175 0.000000
vt 0.734732 1.011271 0.000000
vt 0.586839 1.103685 0.000000
vt 0.427525 1.174616 0.000000
vt 0.259890 1.222685 0.000000
vt 0.087196 1.246955 0.000000
vt -0.087196 1.246955 0.000000
vt -0.259890 1.222685 0.000000
vt -0.427525 1.174616 0.000000
vt -0.586839 1.103685 0.000000
vt -0.734732 1.011271 0.000000
vt -0.868323 0.899175 0.000000
vt -0.985013 0.769577 0.000000
vt -1.082532 0.625000 0.000000
vt -1.158980 0.468258 0.000000
vt -1.212870 0.302402 0.000000
vt -1.243152 0.130661 0.000000
vt -1.249238 -0.043624 0.000000
vt -1.231010 -0.217060 0.000000
vt -1.188821 -0.386271 0.000000
vt -1.123493 -0.547964 0.000000
vt -1.036297 -0.698991 0.000000
vt -0.928931 -0.836413 0.000000
vt -0.803484 -0.957556 0.000000
vt -0.662399 -1.060060 0.000000
vt -0.508421 -1.141932 0.000000
vt -0.344547 -1.201577 0.000000
vt -0.173966 -1.237835 0.000000
vt -0.000000 -1.250000 0.000000
vt 0.173966 -1.237835 0.000000
vt 0.344547 -1.201577 0.000000
vt 0.508421 -1.141932 0.000000
vt 0.662399 -1.060060 0.000000
vt 0.803484 -0.957556 0.000000
vt 0.928931 -0.836413 0.000000
vt 1.036297 -0.698991 0.000000
vt 1.123493 -0.547964 0.000000
vt 1.188821 -0.386271 0.000000
vt 1.231010 -0.217060 0.000000
vt 1.249238 -0.043624 0.000000
vt 1.243152 0.130661 0.000000
vt 1.212870 0.302402 0.000000
vt 1.158980 0.468258 0.000000
vt 1.082532 0.625000 0.000000
vt 0.985013 0.769577 0.000000
vt 0.868323 0.899175 0.000000
vt 0.734732 1.011271 0.000000
vt 0.586839 1.103685 0.000000
vt 0.427525 1.174616 0.000000
vt 0.259890 1.222685 0.000000
vt 0.087196 1.246955 0.000000
vt -0.087196 1.246955 0.000000
vt -0.259890 1.222685 0.000000
vt -0.427525 1.174616 0.000000
vt -0.586839 1.103685 0.000000
vt -0.734732 1.011271 0.000000
vt -0.868323 0.899175 0.000000
vt -0.985013 0.769577 0.000000
vt -1.082532 0.625000 0.000000
vt -1.158980 0.468258 0.000000
vt -1.212870 0.302402 0.000000
vt -1.243152 0.130661 0.000000
vt -1.249238 -0.043624 0.000000
vt -1.231010 -0.217060 0.000000
vt -1.188821 -0.386271 0.000000
vt -1.123493 -0.547964 0.000000
vt -1.036297 -0.698991 0.000000
vt -0.928931 -0.836413 0.000000
vt -0.803484 -0.957556 0.000000
vt -0.662399 -1.060060 0.000000
vt -0.508421 -1.141932 0.000000
vt -0.344547 -1.201577 0.000000
vt -0.173966 -1.237835 0.000000
vn -0.100000 0.000000 0.000000
vn -0.099027 0.000000 -0.013917
vn -0.096126 0.000000 -0.027564
vn -0.091355 0.000000 -0.040674
vn -0.084805 0.000000 -0.052992
vn -0.076604 0.000000 -0.064279
vn -0.066913 0.000000 -0.074314
vn -0.055919 0.000000 -0.082904
vn -0.043837 0.000000 -0.089879
vn -0.030902 0.000000 -0.095106
vn -0.017365 0.000000 -0.098481
vn -0.003490 0.000000 -0.099939
vn 0.010453 0.000000 -0.099452
vn 0.024192 0.000000 -0.097030
vn 0.037461 0.000000 -0.092718
vn 0.050000 0.000000 -0.086603
vn 0.061566 0.000000 -0.078801
vn 0.071934 0.000000 -0.069466
vn 0.080902 0.000000 -0.058779
vn 0.088295 0.000000 -0.046947
vn 0.093969 0.000000 -0.034202
vn 0.097815 0.000000 -0.020791
vn 0.099756 0.000000 -0.006976
vn 0.099756 0.000000 0.006976
vn 0.097815 0.000000 0.020791
vn 0.093969 0.000000 0.034202
vn 0.088295 0.000000 0.046947
vn 0.080902 0.000000 0.058779
vn 0.071934 0.000000 0.069466
vn 0.061566 0.000000 0.078801
vn 0.050000 0.000000 0.086603
vn 0.037461 0.000000 0.092718
vn 0.024192 0.000000 0.097030
vn 0.010453 0.000000 0.099452
vn -0.003490 0.000000 0.099939
vn -0.017365 0.000000 0.098481
vn -0.030902 0.000000 0.095106
vn -0.043837 0.000000 0.089879
vn -0.055919 0.000000 0.082904
vn -0.066913 0.000000 0.074314
vn -0.076604 0.000000 0.064279
vn -0.084805 0.000000 0.052992
vn -0.091355 0.000000 0.040674
vn -0.096126 0.000000 0.027564
vn -0.099027 0.000000 0.013917
vn -0.100000 0.000000 0.000000
vn -0.099027 0.000000 0.013917
vn -0.096126 0.000000 0.027564
vn -0.091355 0.000000 0.040674
vn -0.084805 0.000000 0.052992
vn -0.076604 0.000000 0.064279
vn -0.066913 0.000000 0.074314
vn -0.055919 0.000000 0.082904
vn -0.043837 0.000000 0.089879
vn -0.030902 0.000000 0.095106
vn -0.017365 0.000000 0.098481
vn -0.003490 0.000000 0.099939
vn 0.010453 0.000000 0.099452
vn 0.024192 0.000000 0.097030
vn 0.037461 0.000000 0.092718
vn 0.050000 0.000000 0.086603
vn 0.061566 0.000000 0.078801
vn 0.071934 0.000000 0.069466
vn 0.080902 0.000000 0.058779
vn 0.088295 0.000000 0.046947
vn 0.093969 0.000000 0.034202
vn 0.097815 0.000000 0.020791
vn 0.099756 0.000000 0.006976
vn 0.099756 0.000000 -0.006976
vn 0.097815 0.000000 -0.020791
vn 0.093969 0.000000 -0.034202
vn 0.088295 0.000000 -0.046947
vn 0.080902 0.000000 -0.058779
vn 0.071934 0.000000 -0.069466
vn 0.061566 0.000000 -0.078801
vn 0.050000 0.000000 -0.086603
vn 0.037461 0.000000 -0.092718
vn 0.024192 0.000000 -0.097030
vn 0.010453 0.000000 -0.099452
vn -0.003490 0.000000 -0.099939
vn -0.017365 0.000000 -0.098481
vn -0.030902 0.000000 -0.095106
vn -0.043837 0.000000 -0.089879
vn -0.055919 0.000000 -0.082904
vn -0.066913 0.000000 -0.074314
vn -0.076604 0.000000 -0.064279
vn -0.084805 0.000000 -0.052992
vn -0.091355 0.000000 -0.040674
vn -0.096126 0.000000 -0.027564
vn -0.099027 0.000000 -0.013917
vn 0.099756 0.000000 0.006976
vn 0.099756 0.000000 0.006976
vn 0.099756 0.000000 0.006976
vn 0.099756 0.000000 0.006976
vn 0.000000 0.100000 0.000000
vn 0.000000 0.100000 0.000000
vn 0.000000 0.100000 0.000000
vn 0.000000 0.100000 0.000000
vn 0.000000 0.100000 0.000000
vn 0.000000 0.100000 0.000000
vn 0.000000 0.100000 0.000000
vn 0.000000 0.100000 0.000000
vn 0.000000 0.100000 0.000000
vn 0.000000 0.100000 0.000000
vn 0.000000 0.100000 0.000000
vn 0.000000 0.100000 0.000000
vn 0.000000 0.100000 0.000000
vn 0.000000 0.100000 0.000000
vn 0.000000 0.100000 0.000000
vn 0.000000 0.100000 0.000000
vn 0.000000 0.100000 0.000000
vn 0.000000 0.100000 0.000000
vn 0.000000 0.100000 0.000000
vn 0.000000 0.100000 0.000000
vn 0.000000 0.100000 0.000000
vn 0.000000 0.100000 0.000000
vn 0.000000 0.100000 0.000000
vn 0.000000 0.100000 0.000000
vn 0.000000 0.100000 0.000000
vn 0.000000 0.100000 0.000000
vn 0.000000 0.100000 0.000000
vn 0.000000 0.100000 0.000000
vn 0.000000 0.100000 0.000000
vn 0.000000 0.100000 0.000000
vn 0.000000 0.100000 0.000000
vn 0.000000 0.100000 0.000000
vn 0.000000 0.100000 0.000000
vn 0.000000 0.100000 0.000000
vn 0.000000 0.100000 0.000000
vn 0.000000 0.100000 0.000000
vn 0.000000 0.100000 0.000000
vn 0.000000 0.100000 0.000000
vn 0.000000 0.100000 0.000000
vn 0.000000 0.100000 0.000000
vn 0.000000 0.100000 0.000000
vn 0.000000 0.100000 0.000000
vn 0.000000 0.100000 0.000000
vn 0.000000 0.100000 0.000000
vn 0.000000 0.100000 0.000000
vn 0.000000 -0.100000 0.000000
vn 0.000000 -0.100000 0.000000
vn 0.000000 -0.100000 0.000000
vn 0.000000 -0.100000 0.000000
vn 0.000000 -0.100000 0.000000
vn 0.000000 -0.100000 0.000000
vn 0.000000 -0.100000 0.000000
vn 0.000000 -0.100000 0.000000
vn 0.000000 -0.100000 0.000000
vn 0.000000 -0.100000 0.000000
vn 0.000000 -0.100000 0.000000
vn 0.000000 -0.100000 0.000000
vn 0.000000 -0.100000 0.000000
vn 0.000000 -0.100000 0.000000
vn 0.000000 -0.100000 0.000000
vn 0.000000 -0.100000 0.000000
vn 0.000000 -0.100000 0.000000
vn 0.000000 -0.100000 0.000000
vn 0.000000 -0.100000 0.000000
vn 0.000000 -0.100000 0.000000
vn 0.000000 -0.100000 0.000000
vn 0.000000 -0.100000 0.000000
vn 0.000000 -0.100000 0.000000
vn 0.000000 -0.100000 0.000000
vn 0.000000 -0.100000 0.000000
vn 0.000000 -0.100000 0.000000
vn 0.000000 -0.100000 0.000000
vn 0.000000 -0.100000 0.000000
vn 0.000000 -0.100000 0.000000
vn 0.000000 -0.100000 0.000000
vn 0.000000 -0.100000 0.000000
vn 0.000000 -0.100000 0.000000
vn 0.000000 -0.100000 0.000000
vn 0.000000 -0.100000 0.000000
vn 0.000000 -0.100000 0.000000
vn 0.000000 -0.100000 0.000000
vn 0.000000 -0.100000 0.000000
vn 0.000000 -0.100000 0.000000
vn 0.000000 -0.100000 0.000000
vn 0.000000 -0.100000 0.000000
vn 0.000000 -0.100000 0.000000
vn 0.000000 -0.100000 0.000000
vn 0.000000 -0.100000 0.000000
vn 0.000000 -0.100000 0.000000
vn 0.000000 -0.100000 0.000000
usemtl 191,191,191
f 5/2/2 1/46/46 2/1/1
f 2/1/1 1/46/46 4/47/47
f 2/1/1 4/47/47 6/45/45
f 6/45/45 4/47/47 8/48/48
f 6/45/45 8/48/48 10/44/44
f 10/44/44 8/48/48 12/49/49
f 10/44/44 12/49/49 14/43/43
f 14/43/43 12/49/49 16/50/50
f 14/43/43 16/50/50 18/42/42
f 18/42/42 16/50/50 20/51/51
f 18/42/42 20/51/51 22/41/41
f 22/41/41 20/51/51 24/52/52
f 22/41/41 24/52/52 26/40/40
f 26/40/40 24/52/52 28/53/53
f 26/40/40 28/53/53 30/39/39
f 30/39/39 28/53/53 32/54/54
f 30/39/39 32/54/54 34/38/38
f 34/38/38 32/54/54 36/55/55
f 34/38/38 36/55/55 38/37/37
f 38/37/37 36/55/55 40/56/56
f 38/37/37 40/56/56 42/36/36
f 42/36/36 40/56/56 44/57/57
f 42/36/36 44/57/57 46/35/35
f 46/35/35 44/57/57 48/58/58
f 46/35/35 48/58/58 50/34/34
f 50/34/34 48/58/58 52/59/59
f 50/34/34 52/59/59 54/33/33
f 54/33/33 52/59/59 56/60/60
f 54/33/33 56/60/60 58/32/32
f 58/32/32 56/60/60 60/61/61
f 58/32/32 60/61/61 62/31/31
f 62/31/31 60/61/61 64/62/62
f 62/31/31 64/62/62 66/30/30
f 66/30/30 64/62/62 68/63/63
f 66/30/30 68/63/63 70/29/29
f 70/29/29 68/63/63 72/64/64
f 70/29/29 72/64/64 74/28/28
f 74/28/28 72/64/64 76/65/65
f 74/28/28 76/65/65 78/27/27
f 78/27/27 76/65/65 80/66/66
f 78/27/27 80/66/66 82/26/26
f 82/26/26 80/66/66 84/67/67
f 82/26/26 84/67/67 86/25/25
f 86/25/25 84/67/67 88/91/91
f 86/25/25 88/92/92 90/24/24
f 90/93/93 88/68/68 87/69/69
f 90/94/94 87/69/69 89/23/23
f 89/23/23 87/69/69 83/70/70
f 89/23/23 83/70/70 85/22/22
f 85/22/22 83/70/70 79/71/71
f 85/22/22 79/71/71 81/21/21
f 81/21/21 79/71/71 75/72/72
f 81/21/21 75/72/72 77/20/20
f 77/20/20 75/72/72 71/73/73
f 77/20/20 71/73/73 73/19/19
f 73/19/19 71/73/73 67/74/74
f 73/19/19 67/74/74 69/18/18
f 69/18/18 67/74/74 63/75/75
f 69/18/18 63/75/75 65/17/17
f 65/17/17 63/75/75 59/76/76
f 65/17/17 59/76/76 61/16/16
f 61/16/16 59/76/76 55/77/77
f 61/16/16 55/77/77 57/15/15
f 57/15/15 55/77/77 51/78/78
f 57/15/15 51/78/78 53/14/14
f 53/14/14 51/78/78 47/79/79
f 53/14/14 47/79/79 49/13/13
f 49/13/13 47/79/79 43/80/80
f 49/13/13 43/80/80 45/12/12
f 45/12/12 43/80/80 39/81/81
f 45/12/12 39/81/81 41/11/11
f 41/11/11 39/81/81 35/82/82
f 41/11/11 35/82/82 37/10/10
f 37/10/10 35/82/82 31/83/83
f 37/10/10 31/83/83 33/9/9
f 33/9/9 31/83/83 27/84/84
f 33/9/9 27/84/84 29/8/8
f 29/8/8 27/84/84 23/85/85
f 29/8/8 23/85/85 25/7/7
f 25/7/7 23/85/85 19/86/86
f 25/7/7 19/86/86 21/6/6
f 21/6/6 19/86/86 15/87/87
f 21/6/6 15/87/87 17/5/5
f 17/5/5 15/87/87 11/88/88
f 17/5/5 11/88/88 13/4/4
f 13/4/4 11/88/88 7/89/89
f 13/4/4 7/89/89 9/3/3
f 9/3/3 7/89/89 3/90/90
f 9/3/3 3/90/90 5/2/2
f 5/2/2 3/90/90 1/46/46
f 2/95/95 6/96/96 5/139/139
f 5/139/139 6/96/96 9/138/138
f 9/138/138 6/96/96 10/97/97
f 9/138/138 10/97/97 13/137/137
f 13/137/137 10/97/97 14/98/98
f 13/137/137 14/98/98 17/136/136
f 17/136/136 14/98/98 18/99/99
f 17/136/136 18/99/99 21/135/135
f 21/135/135 18/99/99 22/100/100
f 21/135/135 22/100/100 25/134/134
f 25/134/134 22/100/100 26/101/101
f 25/134/134 26/101/101 29/133/133
f 29/133/133 26/101/101 30/102/102
f 29/133/133 30/102/102 33/132/132
f 33/132/132 30/102/102 34/103/103
f 33/132/132 34/103/103 37/131/131
f 37/131/131 34/103/103 38/104/104
f 37/131/131 38/104/104 41/130/130
f 41/130/130 38/104/104 42/105/105
f 41/130/130 42/105/105 45/129/129
f 45/129/129 42/105/105 46/106/106
f 45/129/129 46/106/106 49/128/128
f 49/128/128 46/106/106 50/107/107
f 49/128/128 50/107/107 53/127/127
f 53/127/127 50/107/107 54/108/108
f 53/127/127 54/108/108 57/126/126
f 57/126/126 54/108/108 58/109/109
f 57/126/126 58/109/109 61/125/125
f 61/125/125 58/109/109 62/110/110
f 61/125/125 62/110/110 65/124/124
f 65/124/124 62/110/110 66/111/111
f 65/124/124 66/111/111 69/123/123
f 69/123/123 66/111/111 70/112/112
f 69/123/123 70/112/112 73/122/122
f 73/122/122 70/112/112 74/113/113
f 73/122/122 74/113/113 77/121/121
f 77/121/121 74/113/113 78/114/114
f 77/121/121 78/114/114 81/120/120
f 81/120/120 78/114/114 82/115/115
f 81/120/120 82/115/115 85/119/119
f 85/119/119 82/115/115 86/116/116
f 85/119/119 86/116/116 89/118/118
f 89/118/118 86/116/116 90/117/117
f 1/140/140 3/141/141 4/184/184
f 4/184/184 3/141/141 8/183/183
f 8/183/183 3/141/141 7/142/142
f 8/183/183 7/142/142 12/182/182
f 12/182/182 7/142/142 11/143/143
f 12/182/182 11/143/143 16/181/181
f 16/181/181 11/143/143 15/144/144
f 16/181/181 15/144/144 20/180/180
f 20/180/180 15/144/144 19/145/145
f 20/180/180 19/145/145 24/179/179
f 24/179/179 19/145/145 23/146/146
f 24/179/179 23/146/146 28/178/178
f 28/178/178 23/146/146 27/147/147
f 28/178/178 27/147/147 32/177/177
f 32/177/177 27/147/147 31/148/148
f 32/177/177 31/148/148 36/176/176
f 36/176/176 31/148/148 35/149/149
f 36/176/176 35/149/149 40/175/175
f 40/175/175 35/149/149 39/150/150
f 40/175/175 39/150/150 44/174/174
f 44/174/174 39/150/150 43/151/151
f 44/174/174 43/151/151 48/173/173
f 48/173/173 43/151/151 47/152/152
f 48/173/173 47/152/152 52/172/172
f 52/172/172 47/152/152 51/153/153
f 52/172/172 51/153/153 56/171/171
f 56/171/171 51/153/153 55/154/154
f 56/171/171 55/154/154 60/170/170
f 60/170/170 55/154/154 59/155/155
f 60/170/170 59/155/155 64/169/169
f 64/169/169 59/155/155 63/156/156
f 64/169/169 63/156/156 68/168/168
f 68/168/168 63/156/156 67/157/157
f 68/168/168 67/157/157 72/167/167
f 72/167/167 67/157/157 71/158/158
f 72/167/167 71/158/158 76/166/166
f 76/166/166 71/158/158 75/159/159
f 76/166/166 75/159/159 80/165/165
f 80/165/165 75/159/159 79/160/160
f 80/165/165 79/160/160 84/164/164
f 84/164/164 79/160/160 83/161/161
f 84/164/164 83/161/161 88/163/163
f 88/163/163 83/161/161 87/162/162
# 90 vertices
# 184 texture params
# 184 normals
# 176 facets

# 1 groups
